<?xml version="1.0" encoding="utf-8"?>
<!-- Generator: Adobe Illustrator 19.1.0, SVG Export Plug-In . SVG Version: 6.00 Build 0)  -->
<svg version="1.1" id="Layer_1" xmlns="http://www.w3.org/2000/svg" xmlns:xlink="http://www.w3.org/1999/xlink" x="0px" y="0px"
	 viewBox="0 0 708 1793.1" style="enable-background:new 0 0 708 1793.1;" xml:space="preserve">
<style type="text/css">
	.st0{fill:none;stroke:#0853F9;stroke-miterlimit:10;}
</style>
<path class="st0" d="M135.1,1793.1c-2.4-1.5-4.8-3-7.1-4.6c-46.8-31.9-80.6-78.4-94.7-133.4c-17.7-69.2,3.5-137.8,4.5-207.4
	c0.6-43.5-23.2-83.4-26.2-126.6c-1.2-17.6,1.2-36,17.5-45.9c11-6.6,25.4-6.9,28.5,8c2.3,11.1-4.8,20.6-16.3,18
	c-19.8-4.4-28.1-28.9-29.1-46.4c-1.4-24.4,5.6-49.1,13-72.1c8-25,15.5-50.3,24.2-75.1c1.3-3.9,2.7-7.7,4.2-11.5
	c19.7-52.6,48-102.3,84.5-144.9c66.8-77.8,166.9-111.8,239.7-182.9c31-30.3,57.9-68.2,61.4-112.6c3.3-41.2-14.6-76.9-35.5-111
	c-24.5-39.9-92.3-132.9-43.6-176.8c48.3-43.6,155.1-13.6,138.2,61.6c-6.3,28.1-30.7,45.3-59.3,42.2c-38.3-4.1-69.7-32.5-77.8-69.9
	c-8-37.1,5.9-77.6,37.2-99.8c36.5-26,90.8-24.4,133.4-33.3c40-8.3,79.4-21.9,108.1-52.4c36-38.2,55.1-95.4,58.3-147
	c1.5-23.6-1-47-7.4-69.2"/>
</svg>
