<?xml version="1.0" encoding="utf-8"?>
<!-- Generator: Adobe Illustrator 19.1.0, SVG Export Plug-In . SVG Version: 6.00 Build 0)  -->
<svg version="1.1" id="Layer_1" xmlns="http://www.w3.org/2000/svg" xmlns:xlink="http://www.w3.org/1999/xlink" x="0px" y="0px"
	 viewBox="0 0 944 3437.3" style="enable-background:new 0 0 944 3437.3;" xml:space="preserve">
<style type="text/css">
	.st0{fill:none;stroke:#0853F9;stroke-miterlimit:10;}
</style>
<path class="st0" d="M39.5,0C28.1,58.1,27,118.3,35.9,172.9C47.1,241.3,73.7,305.1,66,375.7c-6.7,61-27.4,120.7-18.6,182.7
	c6.5,46.5,32.2,83.5,68.2,112.7c44.3,35.8,103.7,57.9,133.2,109.5c7.5,13.1,11.1,28.2,19.4,40.9c4.9,7.5,11.2,12,17,18.4
	c12.3,13.4,18,31.1,16.2,49.1c-3.9,38.6-32,70.7-44.6,106.4c-15.1,42.9,1.9,87.8,43.2,109.6c40.8,21.5,78.8-11.8,103.1-42.4
	c29.6-37.3,45.1-82.8,81.8-114.3c63.9-54.7,149.3-47.4,221.6-13.6c52.6,24.6,88.5,57.1,110.2,111.7c18.4,46.2,28.7,103.7,14.4,152.5
	c-11.9,40.7-47.8,47-85.3,51.1c-44,4.9-97.2,4.1-134.6,31.1c-52.8,38-55.5,162.7,28.2,161.2c21.2-0.4,43.7-12.9,43.2-36.6
	c-0.9-38.5-41.9-61-75.7-48.1c-38.7,14.9-64.8,54.6-62.2,95.4c2,32.2,22.3,57.1,45.7,78.3c59.6,54,131.6,93.4,192.8,145.7
	c60.2,51.4,124.8,120.1,124.2,204.7c-0.6,77.9-58,159.9-131.5,186.4c-36.3,13.1-79.1,9.6-116.2,2c-40.9-8.4-84.5-24.3-114.7-54.3
	c-70.4-70,19.6-173.5,98.5-182.3c38.6-4.3,81.4,19.9,80.7,62.3c-0.6,37.3-30.8,72-65,83.9c-154.7,53.7-80.2-278.4-237.2-212
	c-37.6,15.9-66.4,52.9-88.3,85.9c-24.7,37.3-46,80.4-52.3,125.1c-5.1,36.6,6.8,71.8,37.7,93.8c23.4,16.8,53.4,18.4,77.1,33.9
	c31.8,20.7,23.8,66.2,15.4,97.3c-11.3,41.8-42.3,61.7-80.9,75.6c-32.5,11.7-68.8,22.4-81.7,58.2c-11.2,31.2-8,68.2,19.2,89.7
	c52.9,41.7,130.9,26.2,189.5,55c46.9,23,83.8,68.9,116.9,107.8c24.1,28.4,47.4,58.1,66,90.4c11.5,20,28.7,50.3,20.2,74.3
	c-7.2,20.4-49.5,34.8-57.4,8.1c-3.4-11.5,3.9-24.3,16.4-23.9c20.6,0.5,36.2,28.2,39.3,45.7c9.6,53.8-34.1,95.8-54,140.8
	c-21.1,47.8-11.9,107.7-47.6,149.1c-68.1,79-182.2,51.6-272.1,48.2c-70-2.7-166.6,13.1-157.3,105.3c6.1,61,78,76.9,127.9,83.4
	c70.5,9.1,141.8,4.6,212.7,7.1c23.7,0.8,51.2,0.7,73.4,10.4c30.1,13.2,40.8,47,15.7,70.7c-29.4,27.8-74.9,17.4-91.5-19
	c-8.4-18.4-8.3-42.5-1-61.2c9.7-24.7,33.9-34.4,59.2-34.4c56.3,0,116.8,38.5,152.3,80.1c18.2,21.3,31.1,45.9,38.7,72.2"/>
</svg>
